<svg width="20" height="20" viewBox="0 0 20 20" fill="none" xmlns="http://www.w3.org/2000/svg">
<path d="M17.4998 8.98317V6.6665C17.4998 5.2915 16.3748 4.1665 14.9998 4.1665H11.6665C11.0248 4.1665 10.4415 4.4165 9.99984 4.8165C9.55817 4.4165 8.97484 4.1665 8.33317 4.1665H4.99984C3.62484 4.1665 2.49984 5.2915 2.49984 6.6665V8.98317C1.9915 9.4415 1.6665 10.0998 1.6665 10.8332V15.8332H3.33317V14.1665H16.6665V15.8332H18.3332V10.8332C18.3332 10.0998 18.0082 9.4415 17.4998 8.98317ZM11.6665 5.83317H14.9998C15.4582 5.83317 15.8332 6.20817 15.8332 6.6665V8.33317H10.8332V6.6665C10.8332 6.20817 11.2082 5.83317 11.6665 5.83317ZM4.1665 6.6665C4.1665 6.20817 4.5415 5.83317 4.99984 5.83317H8.33317C8.7915 5.83317 9.1665 6.20817 9.1665 6.6665V8.33317H4.1665V6.6665ZM3.33317 12.4998V10.8332C3.33317 10.3748 3.70817 9.99984 4.1665 9.99984H15.8332C16.2915 9.99984 16.6665 10.3748 16.6665 10.8332V12.4998H3.33317Z" fill="#EB2027"/>
</svg>
