<svg width="149" height="48" viewBox="0 0 149 48" fill="none" xmlns="http://www.w3.org/2000/svg">
<path d="M56.7253 36.0171V13.0785H65.285C66.845 13.0785 68.2203 13.3658 69.4108 13.9406C70.6219 14.4948 71.5661 15.3159 72.2435 16.4038C72.9209 17.4712 73.2596 18.7746 73.2596 20.3141C73.2596 21.8331 72.9106 23.1366 72.2127 24.2245C71.5353 25.2919 70.6014 26.1129 69.4108 26.6877C68.2203 27.2624 66.845 27.5498 65.285 27.5498H60.9128V36.0171H56.7253ZM60.9128 23.855H65.3465C66.106 23.855 66.7629 23.7113 67.3171 23.4239C67.8713 23.116 68.3024 22.6952 68.6103 22.1615C68.9182 21.6279 69.0721 21.0121 69.0721 20.3141C69.0721 19.5957 68.9182 18.9799 68.6103 18.4667C68.3024 17.933 67.8713 17.5225 67.3171 17.2351C66.7629 16.9272 66.106 16.7733 65.3465 16.7733H60.9128V23.855ZM79.2086 36.3866C78.0385 36.3866 77.0225 36.1916 76.1604 35.8016C75.2982 35.4116 74.6311 34.8573 74.159 34.1389C73.6869 33.3999 73.4508 32.5481 73.4508 31.5833C73.4508 30.6596 73.6561 29.8385 74.0666 29.1201C74.4772 28.3811 75.1135 27.7653 75.9756 27.2727C76.8377 26.7801 77.9256 26.4311 79.2394 26.2258L84.72 25.3329V28.4119L80.0091 29.2125C79.2086 29.3562 78.6133 29.6128 78.2233 29.9822C77.8333 30.3517 77.6383 30.8341 77.6383 31.4294C77.6383 32.0041 77.8538 32.466 78.2849 32.8149C78.7365 33.1433 79.2907 33.3076 79.9475 33.3076C80.7891 33.3076 81.5281 33.1331 82.1644 32.7841C82.8213 32.4146 83.3242 31.9117 83.6731 31.2754C84.0426 30.6391 84.2274 29.9412 84.2274 29.1817V24.8711C84.2274 24.1526 83.94 23.5574 83.3652 23.0853C82.811 22.5926 82.072 22.3463 81.1483 22.3463C80.2862 22.3463 79.5165 22.5823 78.8391 23.0545C78.1822 23.506 77.6999 24.1116 77.392 24.8711L74.0974 23.27C74.4258 22.3873 74.939 21.6279 75.6369 20.9915C76.3554 20.3347 77.197 19.8215 78.1617 19.452C79.1265 19.0825 80.1733 18.8978 81.3023 18.8978C82.6776 18.8978 83.8887 19.1544 84.9355 19.6676C85.9824 20.1602 86.7932 20.8581 87.3679 21.7613C87.9632 22.6439 88.2609 23.6805 88.2609 24.8711V36.0171H84.4429V33.1536L85.305 33.092C84.8739 33.8105 84.3608 34.416 83.7655 34.9086C83.1702 35.3808 82.4928 35.7502 81.7334 36.0171C80.9739 36.2634 80.1323 36.3866 79.2086 36.3866ZM90.7573 36.0171V12.709H94.7908V36.0171H90.7573ZM102.364 36.3866C101.194 36.3866 100.178 36.1916 99.3155 35.8016C98.4533 35.4116 97.7862 34.8573 97.3141 34.1389C96.842 33.3999 96.6059 32.5481 96.6059 31.5833C96.6059 30.6596 96.8112 29.8385 97.2217 29.1201C97.6323 28.3811 98.2686 27.7653 99.1307 27.2727C99.9928 26.7801 101.081 26.4311 102.394 26.2258L107.875 25.3329V28.4119L103.164 29.2125C102.364 29.3562 101.768 29.6128 101.378 29.9822C100.988 30.3517 100.793 30.8341 100.793 31.4294C100.793 32.0041 101.009 32.466 101.44 32.8149C101.892 33.1433 102.446 33.3076 103.103 33.3076C103.944 33.3076 104.683 33.1331 105.32 32.7841C105.976 32.4146 106.479 31.9117 106.828 31.2754C107.198 30.6391 107.382 29.9412 107.382 29.1817V24.8711C107.382 24.1526 107.095 23.5574 106.52 23.0853C105.966 22.5926 105.227 22.3463 104.303 22.3463C103.441 22.3463 102.672 22.5823 101.994 23.0545C101.337 23.506 100.855 24.1116 100.547 24.8711L97.2525 23.27C97.581 22.3873 98.0941 21.6279 98.792 20.9915C99.5105 20.3347 100.352 19.8215 101.317 19.452C102.282 19.0825 103.328 18.8978 104.457 18.8978C105.833 18.8978 107.044 19.1544 108.091 19.6676C109.138 20.1602 109.948 20.8581 110.523 21.7613C111.118 22.6439 111.416 23.6805 111.416 24.8711V36.0171H107.598V33.1536L108.46 33.092C108.029 33.8105 107.516 34.416 106.921 34.9086C106.325 35.3808 105.648 35.7502 104.888 36.0171C104.129 36.2634 103.287 36.3866 102.364 36.3866ZM121.979 36.3866C120.317 36.3866 118.818 36.0068 117.484 35.2473C116.17 34.4673 115.134 33.4205 114.374 32.1067C113.615 30.7725 113.235 29.2741 113.235 27.6114C113.235 25.9487 113.615 24.4605 114.374 23.1468C115.134 21.8331 116.17 20.7965 117.484 20.037C118.818 19.2775 120.317 18.8978 121.979 18.8978C123.17 18.8978 124.278 19.1133 125.305 19.5444C126.331 19.9549 127.214 20.5297 127.953 21.2686C128.712 21.9871 129.256 22.8492 129.585 23.855L126.044 25.3945C125.736 24.5529 125.212 23.8755 124.473 23.3624C123.755 22.8492 122.924 22.5926 121.979 22.5926C121.097 22.5926 120.306 22.8081 119.609 23.2392C118.931 23.6703 118.397 24.2655 118.007 25.025C117.617 25.7845 117.422 26.6569 117.422 27.6422C117.422 28.6275 117.617 29.4999 118.007 30.2593C118.397 31.0188 118.931 31.6141 119.609 32.0452C120.306 32.4762 121.097 32.6918 121.979 32.6918C122.944 32.6918 123.786 32.4352 124.504 31.922C125.223 31.4088 125.736 30.7212 126.044 29.8591L129.585 31.4602C129.256 32.4044 128.722 33.2562 127.983 34.0157C127.244 34.7547 126.362 35.3397 125.335 35.7708C124.309 36.1813 123.19 36.3866 121.979 36.3866ZM139.357 36.3866C137.633 36.3866 136.124 35.9966 134.831 35.2165C133.538 34.4365 132.532 33.3794 131.814 32.0452C131.095 30.7109 130.736 29.233 130.736 27.6114C130.736 25.9282 131.095 24.44 131.814 23.1468C132.553 21.8331 133.548 20.7965 134.8 20.037C136.073 19.2775 137.489 18.8978 139.049 18.8978C140.363 18.8978 141.513 19.1133 142.498 19.5444C143.504 19.9755 144.356 20.5707 145.053 21.3302C145.751 22.0897 146.285 22.9621 146.655 23.9474C147.024 24.9121 147.209 25.959 147.209 27.088C147.209 27.3753 147.188 27.673 147.147 27.9809C147.127 28.2888 147.075 28.5556 146.993 28.7814H134.061V25.7024H144.715L142.806 27.1495C142.99 26.2053 142.939 25.3637 142.652 24.6248C142.385 23.8858 141.933 23.3008 141.297 22.8697C140.681 22.4387 139.932 22.2231 139.049 22.2231C138.208 22.2231 137.459 22.4387 136.802 22.8697C136.145 23.2803 135.642 23.8961 135.293 24.7171C134.965 25.5177 134.841 26.4927 134.923 27.6422C134.841 28.6685 134.975 29.582 135.324 30.3825C135.693 31.1625 136.227 31.7681 136.925 32.1991C137.643 32.6302 138.464 32.8457 139.388 32.8457C140.312 32.8457 141.092 32.6507 141.728 32.2607C142.385 31.8707 142.898 31.3473 143.268 30.6904L146.531 32.2915C146.203 33.092 145.69 33.8002 144.992 34.416C144.294 35.0318 143.463 35.5142 142.498 35.8631C141.554 36.2121 140.507 36.3866 139.357 36.3866Z" fill="white"/>
<rect width="48" height="48" rx="24" fill="#EB2027"/>
<g clip-path="url(#clip0_221_42)">
<path d="M41.957 35.4057C41.7133 35.2681 41.3652 35.0961 40.9127 34.8896C40.4602 34.6832 39.9032 34.4423 39.2419 34.2015C38.7197 34.0295 38.1628 33.8574 37.5362 33.6854V27.0792C35.2737 25.0836 33.8117 23.7762 32.8022 22.8816H32.7674V32.8596C32.2105 32.8252 31.6883 32.7908 31.0966 32.7908C30.9573 32.7908 30.8181 32.7908 30.6789 32.7908V23.5009C27.2328 20.4731 25.0398 18.5119 23.5082 17.17H23.4386V33.6166C23.1601 33.6854 22.8816 33.7542 22.638 33.823L22.2203 33.9262L21.8374 34.0295C21.6981 34.0639 21.5589 34.0983 21.4197 34.1327C21.3849 34.1327 21.3849 34.1327 21.35 34.1327V20.5763C16.3724 16.1722 13.1351 13.3164 10.9422 11.3896H10.8377V34.3735C10.6289 34.3047 10.4548 34.2703 10.2808 34.2015C9.65422 33.9951 9.09728 33.7542 8.67957 33.5478C8.22706 33.3413 7.91377 33.1349 7.67011 32.9973C7.46126 32.8596 7.32202 32.7908 7.32202 32.7908C7.32202 32.7908 7.35683 32.8252 7.39164 32.8596C7.42645 32.9284 7.49607 32.9973 7.60049 33.1005C7.77454 33.3069 8.05301 33.5822 8.43591 33.8918C8.81881 34.2015 9.30613 34.58 9.9327 34.924C10.246 35.0961 10.5941 35.2681 10.9422 35.4401C11.3251 35.6122 11.708 35.7498 12.1257 35.8874C12.9611 36.1627 13.9009 36.3691 14.9104 36.4724C15.9198 36.5756 16.9989 36.61 18.078 36.5412C18.6349 36.5068 19.1919 36.438 19.7488 36.3691C19.8881 36.3347 20.0273 36.3347 20.1665 36.3003C20.3058 36.2659 20.445 36.2659 20.5843 36.2315C20.7235 36.1971 20.8627 36.1971 21.002 36.1627C21.1412 36.1283 21.2804 36.0939 21.4197 36.0595C21.5589 36.0251 21.6981 35.9907 21.8374 35.9563C21.9766 35.9218 22.1158 35.8874 22.2551 35.853C22.3943 35.8186 22.5336 35.7842 22.6728 35.7498L23.0557 35.6466C23.3342 35.5778 23.5778 35.509 23.8563 35.4746L24.6569 35.3025C25.179 35.1993 25.736 35.0961 26.2581 34.9929C26.5366 34.9585 26.7803 34.8896 27.0587 34.8552C27.3372 34.8208 27.5809 34.7864 27.8593 34.752C28.1378 34.7176 28.3815 34.6832 28.6599 34.6488C28.9384 34.6144 29.1821 34.58 29.4605 34.58C29.9827 34.5456 30.5048 34.5112 31.027 34.4768C32.0712 34.4423 33.0459 34.4079 34.0205 34.4423C34.9604 34.4768 35.8654 34.5112 36.7008 34.58C38.3717 34.7176 39.7292 34.9585 40.7039 35.1649C41.1912 35.2681 41.5741 35.3369 41.8177 35.4057C42.0614 35.4746 42.2006 35.509 42.2006 35.509C42.2006 35.509 42.2006 35.5434 41.957 35.4057Z" fill="white"/>
</g>
<defs>
<clipPath id="clip0_221_42">
<rect width="34.9831" height="25.2203" fill="white" transform="translate(7.32202 11.3896)"/>
</clipPath>
</defs>
</svg>
