<svg width="24" height="24" viewBox="0 0 24 24" fill="none" xmlns="http://www.w3.org/2000/svg">
<path d="M4.63812 6.55487C4.23766 6.95532 3.92 7.43073 3.70327 7.95395C3.48655 8.47717 3.375 9.03796 3.375 9.60429C3.375 10.1706 3.48655 10.7314 3.70327 11.2546C3.92 11.7778 4.23766 12.2533 4.63812 12.6537L12 20.0156L19.362 12.6537C20.1707 11.8449 20.6251 10.748 20.6251 9.60429C20.6251 8.46053 20.1707 7.36362 19.362 6.55487C18.5532 5.74611 17.4563 5.29176 16.3125 5.29176C15.1688 5.29176 14.0719 5.74611 13.2631 6.55487L12 7.81795L10.737 6.55487C10.3365 6.15441 9.86109 5.83675 9.33787 5.62002C8.81465 5.4033 8.25387 5.29175 7.68754 5.29175C7.12121 5.29175 6.56042 5.4033 6.0372 5.62002C5.51398 5.83675 5.03857 6.15441 4.63812 6.55487V6.55487Z" stroke="#EB2027" stroke-width="2.19048" stroke-linecap="round" stroke-linejoin="round"/>
</svg>
