<svg width="149" height="48" viewBox="0 0 149 48" fill="none" xmlns="http://www.w3.org/2000/svg">
<path d="M56.7253 36.0169V13.0783H65.285C66.845 13.0783 68.2203 13.3657 69.4108 13.9404C70.6219 14.4947 71.5661 15.3157 72.2435 16.4036C72.9209 17.471 73.2596 18.7745 73.2596 20.314C73.2596 21.833 72.9106 23.1364 72.2127 24.2243C71.5353 25.2917 70.6014 26.1128 69.4108 26.6875C68.2203 27.2623 66.845 27.5497 65.285 27.5497H60.9128V36.0169H56.7253ZM60.9128 23.8549H65.3465C66.106 23.8549 66.7629 23.7112 67.3171 23.4238C67.8713 23.1159 68.3024 22.6951 68.6103 22.1614C68.9182 21.6277 69.0721 21.0119 69.0721 20.314C69.0721 19.5956 68.9182 18.9798 68.6103 18.4666C68.3024 17.9329 67.8713 17.5224 67.3171 17.235C66.7629 16.9271 66.106 16.7731 65.3465 16.7731H60.9128V23.8549ZM79.2086 36.3864C78.0385 36.3864 77.0225 36.1914 76.1604 35.8014C75.2982 35.4114 74.6311 34.8572 74.159 34.1387C73.6869 33.3998 73.4508 32.5479 73.4508 31.5832C73.4508 30.6595 73.6561 29.8384 74.0666 29.12C74.4772 28.381 75.1135 27.7652 75.9756 27.2726C76.8377 26.7799 77.9256 26.431 79.2394 26.2257L84.72 25.3328V28.4118L80.0091 29.2123C79.2086 29.356 78.6133 29.6126 78.2233 29.9821C77.8333 30.3516 77.6383 30.8339 77.6383 31.4292C77.6383 32.004 77.8538 32.4658 78.2849 32.8148C78.7365 33.1432 79.2907 33.3074 79.9475 33.3074C80.7891 33.3074 81.5281 33.1329 82.1644 32.784C82.8213 32.4145 83.3242 31.9116 83.6731 31.2753C84.0426 30.6389 84.2274 29.941 84.2274 29.1815V24.8709C84.2274 24.1525 83.94 23.5572 83.3652 23.0851C82.811 22.5925 82.072 22.3461 81.1483 22.3461C80.2862 22.3461 79.5165 22.5822 78.8391 23.0543C78.1822 23.5059 77.6999 24.1114 77.392 24.8709L74.0974 23.2698C74.4258 22.3872 74.939 21.6277 75.6369 20.9914C76.3554 20.3345 77.197 19.8213 78.1617 19.4519C79.1265 19.0824 80.1733 18.8976 81.3023 18.8976C82.6776 18.8976 83.8887 19.1542 84.9355 19.6674C85.9824 20.16 86.7932 20.8579 87.3679 21.7611C87.9632 22.6438 88.2609 23.6804 88.2609 24.8709V36.0169H84.4429V33.1535L85.305 33.0919C84.8739 33.8103 84.3608 34.4159 83.7655 34.9085C83.1702 35.3806 82.4928 35.7501 81.7334 36.0169C80.9739 36.2633 80.1323 36.3864 79.2086 36.3864ZM90.7573 36.0169V12.7088H94.7908V36.0169H90.7573ZM102.364 36.3864C101.194 36.3864 100.178 36.1914 99.3155 35.8014C98.4533 35.4114 97.7862 34.8572 97.3141 34.1387C96.842 33.3998 96.6059 32.5479 96.6059 31.5832C96.6059 30.6595 96.8112 29.8384 97.2217 29.12C97.6323 28.381 98.2686 27.7652 99.1307 27.2726C99.9928 26.7799 101.081 26.431 102.394 26.2257L107.875 25.3328V28.4118L103.164 29.2123C102.364 29.356 101.768 29.6126 101.378 29.9821C100.988 30.3516 100.793 30.8339 100.793 31.4292C100.793 32.004 101.009 32.4658 101.44 32.8148C101.892 33.1432 102.446 33.3074 103.103 33.3074C103.944 33.3074 104.683 33.1329 105.32 32.784C105.976 32.4145 106.479 31.9116 106.828 31.2753C107.198 30.6389 107.382 29.941 107.382 29.1815V24.8709C107.382 24.1525 107.095 23.5572 106.52 23.0851C105.966 22.5925 105.227 22.3461 104.303 22.3461C103.441 22.3461 102.672 22.5822 101.994 23.0543C101.337 23.5059 100.855 24.1114 100.547 24.8709L97.2525 23.2698C97.581 22.3872 98.0941 21.6277 98.792 20.9914C99.5105 20.3345 100.352 19.8213 101.317 19.4519C102.282 19.0824 103.328 18.8976 104.457 18.8976C105.833 18.8976 107.044 19.1542 108.091 19.6674C109.138 20.16 109.948 20.8579 110.523 21.7611C111.118 22.6438 111.416 23.6804 111.416 24.8709V36.0169H107.598V33.1535L108.46 33.0919C108.029 33.8103 107.516 34.4159 106.921 34.9085C106.325 35.3806 105.648 35.7501 104.888 36.0169C104.129 36.2633 103.287 36.3864 102.364 36.3864ZM121.979 36.3864C120.317 36.3864 118.818 36.0067 117.484 35.2472C116.17 34.4672 115.134 33.4203 114.374 32.1066C113.615 30.7724 113.235 29.2739 113.235 27.6112C113.235 25.9486 113.615 24.4604 114.374 23.1467C115.134 21.833 116.17 20.7964 117.484 20.0369C118.818 19.2774 120.317 18.8976 121.979 18.8976C123.17 18.8976 124.278 19.1132 125.305 19.5442C126.331 19.9548 127.214 20.5295 127.953 21.2685C128.712 21.9869 129.256 22.849 129.585 23.8549L126.044 25.3944C125.736 24.5528 125.212 23.8754 124.473 23.3622C123.755 22.849 122.924 22.5925 121.979 22.5925C121.097 22.5925 120.306 22.808 119.609 23.239C118.931 23.6701 118.397 24.2654 118.007 25.0249C117.617 25.7844 117.422 26.6567 117.422 27.642C117.422 28.6273 117.617 29.4997 118.007 30.2592C118.397 31.0187 118.931 31.614 119.609 32.045C120.306 32.4761 121.097 32.6916 121.979 32.6916C122.944 32.6916 123.786 32.435 124.504 31.9219C125.223 31.4087 125.736 30.721 126.044 29.8589L129.585 31.46C129.256 32.4042 128.722 33.2561 127.983 34.0156C127.244 34.7545 126.362 35.3396 125.335 35.7706C124.309 36.1812 123.19 36.3864 121.979 36.3864ZM139.357 36.3864C137.633 36.3864 136.124 35.9964 134.831 35.2164C133.538 34.4364 132.532 33.3793 131.814 32.045C131.095 30.7108 130.736 29.2329 130.736 27.6112C130.736 25.9281 131.095 24.4399 131.814 23.1467C132.553 21.833 133.548 20.7964 134.8 20.0369C136.073 19.2774 137.489 18.8976 139.049 18.8976C140.363 18.8976 141.513 19.1132 142.498 19.5442C143.504 19.9753 144.356 20.5706 145.053 21.3301C145.751 22.0896 146.285 22.9619 146.655 23.9472C147.024 24.912 147.209 25.9588 147.209 27.0878C147.209 27.3752 147.188 27.6728 147.147 27.9807C147.127 28.2886 147.075 28.5555 146.993 28.7813H134.061V25.7023H144.715L142.806 27.1494C142.99 26.2052 142.939 25.3636 142.652 24.6246C142.385 23.8856 141.933 23.3006 141.297 22.8696C140.681 22.4385 139.932 22.223 139.049 22.223C138.208 22.223 137.459 22.4385 136.802 22.8696C136.145 23.2801 135.642 23.8959 135.293 24.717C134.965 25.5175 134.841 26.4925 134.923 27.642C134.841 28.6684 134.975 29.5818 135.324 30.3824C135.693 31.1624 136.227 31.7679 136.925 32.199C137.643 32.63 138.464 32.8456 139.388 32.8456C140.312 32.8456 141.092 32.6506 141.728 32.2605C142.385 31.8705 142.898 31.3471 143.268 30.6903L146.531 32.2913C146.203 33.0919 145.69 33.8001 144.992 34.4159C144.294 35.0317 143.463 35.514 142.498 35.863C141.554 36.2119 140.507 36.3864 139.357 36.3864Z" fill="#171B2A"/>
<rect width="48" height="48" rx="24" fill="#EB2027"/>
<g clip-path="url(#clip0_89_113)">
<path d="M41.957 35.4059C41.7133 35.2683 41.3652 35.0963 40.9127 34.8898C40.4602 34.6834 39.9032 34.4425 39.2419 34.2017C38.7197 34.0296 38.1628 33.8576 37.5362 33.6856V27.0794C35.2737 25.0838 33.8117 23.7764 32.8022 22.8818H32.7674V32.8598C32.2105 32.8254 31.6883 32.791 31.0966 32.791C30.9573 32.791 30.8181 32.791 30.6789 32.791V23.5011C27.2328 20.4733 25.0398 18.5121 23.5082 17.1702H23.4386V33.6168C23.1601 33.6856 22.8816 33.7544 22.638 33.8232L22.2203 33.9264L21.8374 34.0296C21.6981 34.0641 21.5589 34.0985 21.4197 34.1329C21.3849 34.1329 21.3849 34.1329 21.35 34.1329V20.5765C16.3724 16.1724 13.1351 13.3166 10.9422 11.3898H10.8377V34.3737C10.6289 34.3049 10.4548 34.2705 10.2808 34.2017C9.65422 33.9952 9.09728 33.7544 8.67957 33.5479C8.22706 33.3415 7.91377 33.1351 7.67011 32.9974C7.46126 32.8598 7.32202 32.791 7.32202 32.791C7.32202 32.791 7.35683 32.8254 7.39164 32.8598C7.42645 32.9286 7.49607 32.9974 7.60049 33.1007C7.77454 33.3071 8.05301 33.5824 8.43591 33.892C8.81881 34.2017 9.30613 34.5802 9.9327 34.9242C10.246 35.0963 10.5941 35.2683 10.9422 35.4403C11.3251 35.6124 11.708 35.75 12.1257 35.8876C12.9611 36.1629 13.9009 36.3693 14.9104 36.4725C15.9198 36.5758 16.9989 36.6102 18.078 36.5414C18.6349 36.5069 19.1919 36.4381 19.7488 36.3693C19.8881 36.3349 20.0273 36.3349 20.1665 36.3005C20.3058 36.2661 20.445 36.2661 20.5843 36.2317C20.7235 36.1973 20.8627 36.1973 21.002 36.1629C21.1412 36.1285 21.2804 36.0941 21.4197 36.0597C21.5589 36.0252 21.6981 35.9908 21.8374 35.9564C21.9766 35.922 22.1158 35.8876 22.2551 35.8532C22.3943 35.8188 22.5336 35.7844 22.6728 35.75L23.0557 35.6468C23.3342 35.578 23.5778 35.5091 23.8563 35.4747L24.6569 35.3027C25.179 35.1995 25.736 35.0963 26.2581 34.993C26.5366 34.9586 26.7803 34.8898 27.0587 34.8554C27.3372 34.821 27.5809 34.7866 27.8593 34.7522C28.1378 34.7178 28.3815 34.6834 28.6599 34.649C28.9384 34.6146 29.1821 34.5802 29.4605 34.5802C29.9827 34.5457 30.5048 34.5113 31.027 34.4769C32.0712 34.4425 33.0459 34.4081 34.0205 34.4425C34.9604 34.4769 35.8654 34.5113 36.7008 34.5802C38.3717 34.7178 39.7292 34.9586 40.7039 35.1651C41.1912 35.2683 41.5741 35.3371 41.8177 35.4059C42.0614 35.4747 42.2006 35.5091 42.2006 35.5091C42.2006 35.5091 42.2006 35.5436 41.957 35.4059Z" fill="white"/>
</g>
<defs>
<clipPath id="clip0_89_113">
<rect width="34.9831" height="25.2203" fill="white" transform="translate(7.32202 11.3898)"/>
</clipPath>
</defs>
</svg>
